<svg width="15" height="13" viewBox="0 0 15 13" fill="none" xmlns="http://www.w3.org/2000/svg">
<path fill-rule="evenodd" clip-rule="evenodd" d="M13.1171 0.111805C13.2836 0.0077901 13.4823 -0.025298 13.6718 0.0194824C13.8612 0.0642629 14.0265 0.183432 14.1331 0.351987L14.8771 1.5295C14.9743 1.6834 15.0159 1.868 14.9945 2.05066C14.9732 2.23332 14.8904 2.40228 14.7606 2.52766L14.7583 2.53078L14.7478 2.54091L14.705 2.58224L14.5359 2.7499C13.6003 3.6916 12.6931 4.66319 11.8156 5.66328C10.1646 7.5473 8.20404 10.0131 6.88446 12.4055C6.51624 13.073 5.61674 13.2165 5.0832 12.6402L0.209932 7.38588C0.140094 7.31055 0.0855635 7.22142 0.0495809 7.12379C0.0135982 7.02615 -0.0031017 6.92201 0.000473508 6.81755C0.00404872 6.71308 0.0278261 6.61043 0.0703925 6.51569C0.112959 6.42096 0.173445 6.33607 0.248256 6.26607L1.72113 4.88736C1.85057 4.76627 2.01653 4.69562 2.19063 4.68751C2.36473 4.6794 2.53613 4.73434 2.6755 4.84292L5.1621 6.77762C9.04568 2.80293 11.249 1.27762 13.1171 0.111805Z" fill="#51B851"/>
</svg>
