<svg width="5" height="4" viewBox="0 0 5 4" fill="none" xmlns="http://www.w3.org/2000/svg">
<path d="M1.79988 3.64145L0.12449 1.16114C0.0467925 1.0461 0.00389862 0.91402 0.000253677 0.778573C-0.00339127 0.643126 0.0323458 0.509244 0.103761 0.390804C0.175175 0.272362 0.27967 0.173671 0.406416 0.104957C0.533162 0.0362425 0.677547 5.00679e-06 0.824609 0H4.17539C4.32245 5.00679e-06 4.46684 0.0362425 4.59358 0.104957C4.72033 0.173671 4.82483 0.272362 4.89624 0.390804C4.96765 0.509244 5.00339 0.643126 4.99975 0.778573C4.9961 0.91402 4.95321 1.0461 4.87551 1.16114L3.20012 3.6417C3.12608 3.75131 3.02294 3.84172 2.90044 3.90441C2.77794 3.9671 2.64013 4 2.5 4C2.35987 4 2.22206 3.9671 2.09956 3.90441C1.97706 3.84172 1.87392 3.75131 1.79988 3.6417V3.64145Z" fill="#3E595F"/>
</svg>
