<svg width="16" height="20" viewBox="0 0 16 20" fill="none" xmlns="http://www.w3.org/2000/svg">
<path d="M15.5736 11.133C15.8466 11.4009 16 11.7642 16 12.143C16 12.5219 15.8466 12.8852 15.5736 13.1531L9.02074 19.5817C8.74766 19.8495 8.37734 20 7.99121 20C7.60508 20 7.23475 19.8495 6.96167 19.5817L0.408774 13.1531C0.143515 12.8836 -0.00326211 12.5228 5.57358e-05 12.1482C0.00337359 11.7736 0.15652 11.4153 0.426512 11.1504C0.696503 10.8856 1.06174 10.7353 1.44355 10.7321C1.82536 10.7288 2.1932 10.8728 2.46784 11.133L6.53501 15.0002L6.53501 1.42859C6.53501 1.04971 6.68843 0.686338 6.96152 0.418425C7.23461 0.150512 7.605 -3.66957e-07 7.99121 -3.50075e-07C8.37742 -3.33194e-07 8.74781 0.150512 9.0209 0.418425C9.29399 0.686338 9.44741 1.04971 9.44741 1.42859L9.44741 15.0002L13.5146 11.133C13.7877 10.8652 14.158 10.7148 14.5441 10.7148C14.9302 10.7148 15.3006 10.8652 15.5736 11.133Z" fill="#51B851"/>
</svg>
