<svg width="72" height="75" viewBox="0 0 72 75" fill="none" xmlns="http://www.w3.org/2000/svg">
<path d="M55.4 74.6001H16.5C7.4 74.6001 0 67.4001 0 58.6001V34.3001C0 28.9001 2.7 23.7001 7.1 20.4001L26.9 5.6001C32.2 1.6001 39.7 1.6001 45.1 5.6001L64.9 20.5001C69.3 23.8001 72 28.9001 72 34.3001V58.6001C71.9 67.4001 64.5 74.6001 55.4 74.6001ZM35.9 9.5001C34.2 9.5001 32.4 10.0001 31 11.1001L11.2 26.0001C8.5 28.0001 6.9 31.1001 6.9 34.3001V58.6001C6.9 63.6001 11.2 67.7001 16.4 67.7001H55.3C60.6 67.7001 64.8 63.6001 64.8 58.6001V34.3001C64.8 31.1001 63.2 28.0001 60.5 26.0001L40.9 11.1001C39.4 10.0001 37.7 9.5001 35.9 9.5001Z" fill="url(#paint0_linear_77_413)"/>
<path d="M61.1 14.2C61.1 14.2 66.7 10.1 66.4 6.3C66.1 2.5 62.8 0 62.8 0L61.1 14.2Z" fill="#51B851"/>
<path d="M61.0999 14.2C61.0999 14.2 56.4999 10.3 57.6999 6.5C58.8999 2.7 62.7999 0 62.7999 0L61.0999 14.2Z" fill="#91C84A"/>
<path d="M14.4 39.3C15.0627 39.3 15.6 38.5389 15.6 37.6C15.6 36.6611 15.0627 35.9 14.4 35.9C13.7372 35.9 13.2 36.6611 13.2 37.6C13.2 38.5389 13.7372 39.3 14.4 39.3Z" fill="#FEF4C2"/>
<path d="M32.6 63.8C24.1 63.7 18 63.7 14.3 59.2C11 55.1 11.3 48.1 11.6 42.6L11.7 40.8C12 35.2 12.1 32.4 13.4 30.3C14.8 27.9 28.3 17 34.7 17C40.3 17.1 46.4 21.3 49.7 23.5C50.4 24 51 24.4 51.4 24.6L51.9 24.9C54.2 26.2 57.3 28.1 59 32.3C60.2 35.4 61.8 56.4 59.5 59.1C55.5 63.8 41.4 63.8 36 63.8C36 63.8 33.7 63.8 32.6 63.8Z" fill="#F79B71"/>
<path d="M34.7 16L34.8 18C40 18.1 46 22.1 49.2 24.3C49.9 24.8 50.6 25.2 51 25.5L51.5 25.8C53.8 27.1 56.6 28.8 58.2 32.7C59.5 35.9 60.7 55.9 58.9 58.4C55.2 62.7 40.8 62.7 36.1 62.7C34.9 62.7 33.8 62.7 32.7 62.7C23.7 62.6 18.4 62.4 15.2 58.4C12.1 54.6 12.4 47.8 12.7 42.5L12.8 41.1V40.7C13.1 35.3 13.2 32.5 14.3 30.7C15.4 28.8 28.8 18 34.7 18V16ZM34.7 16C27.9 16 14 27.2 12.6 29.6C11.1 32 11 35 10.7 41C10.4 47 9.7 54.9 13.6 59.7C17.5 64.5 23.7 64.6 32.7 64.7C33.8 64.7 34.9 64.7 36.1 64.7C44.9 64.7 56.5 64.2 60.4 59.7C63.1 56.6 61.4 35.1 60.1 31.9C58.1 27 54.4 25.1 52 23.7C49.6 22.4 41.8 16.1 34.7 16Z" fill="#E55F44"/>
<path d="M37.4 47.4001C29.9 43.8001 21.5 38.5 12.2 30.3C11.1 32.6 11 35.6 10.7 41C10.4 47 9.7 54.9001 13.6 59.7001C17.5 64.5 23.7 64.6 32.7 64.7C41.6 64.8 56 64.8 60.4 59.7001C61.1 58.9001 61.5 56.7001 61.7 53.9001C54.6 53.2001 46.7 52.0001 37.4 47.4001Z" fill="#E55F44"/>
<path d="M47.6 50.3L43.4 46.6C42.9 46.2 42.9 45.5 43.3 45.1L47 40.9C47.4 40.4 48.1 40.4 48.5 40.8L52.7 44.5C53.2 44.9 53.2 45.6 52.8 46L49.1 50.2C48.7 50.7 48 50.7 47.6 50.3Z" fill="#F1614C"/>
<path d="M50.2 33.9C50.1 33.9 50.1 33.9 50.2 33.9C49.5 33.9 45.6 34.2 42.2 36.7C38.6 39.4 38.2 45.6 38.2 45.6C38.2 45.6 44.5999 45.2 47.2999 41.7C49.7999 38.4 50.1 34.5 50.2 33.9Z" fill="#F1614C"/>
<path d="M49.5 48.8L45.3 45.1C44.8 44.7 44.8 44 45.2 43.6L48.9 39.4C49.3 38.9 50 38.9 50.4 39.3L54.6 43C55.1 43.4 55.1 44.1 54.7 44.5L51 48.7C50.6 49.1 49.9 49.2 49.5 48.8Z" fill="#F8FCFF"/>
<path d="M37.1 36H30.5C29.9 36 29.4 35.5 29.4 34.9V28.2999C29.4 27.6999 29.9 27.2 30.5 27.2H37.1C37.7 27.2 38.2 27.6999 38.2 28.2999V34.9C38.2 35.5 37.7 36 37.1 36Z" fill="#F1614C"/>
<path d="M27.9 36.9L22.8 31.2C22.4 30.8 22.4 30.1 22.9 29.7L26.5 26.4C26.9 26 27.6 26 28 26.5L33.1 32.2C33.5 32.6 33.5 33.3 33 33.7L29.4 37C29 37.4 28.3 37.3 27.9 36.9Z" fill="#F1614C"/>
<path d="M32.8 59.5L26 59.9C25.4 59.9 24.9 59.5 24.8 58.9L24.4 52.1C24.4 51.5 24.8 51 25.4 50.9L32.2 50.5C32.8 50.5 33.3 50.9 33.4 51.5L33.8 58.3C33.9 58.9 33.4 59.5 32.8 59.5Z" fill="#C24647"/>
<path d="M38.6 34H32C31.4 34 30.9 33.5 30.9 32.9V26.2999C30.9 25.6999 31.4 25.2 32 25.2H38.6C39.2 25.2 39.7 25.6999 39.7 26.2999V32.9C39.7 33.5 39.2 34 38.6 34Z" fill="#F8FCFF"/>
<path d="M27.3 49.8L23.1 53.6C22.6 54 22 54 21.6 53.5L17.8 49.3C17.4 48.9 17.4 48.2 17.9 47.8L22.1 44C22.5 43.6 23.2 43.6 23.6 44.1L27.4 48.3C27.8 48.8 27.7 49.4 27.3 49.8Z" fill="#C24647"/>
<path d="M34.2001 57.8L27.4 58.2001C26.8 58.2001 26.3001 57.8001 26.2001 57.2001L25.8 50.4001C25.8 49.8001 26.2 49.3001 26.8 49.2001L33.6 48.8C34.2 48.8 34.7 49.2 34.8 49.8L35.2001 56.6C35.3001 57.2 34.8001 57.8 34.2001 57.8Z" fill="#F8FCFF"/>
<path d="M28.8 48.5L24.6 52.3C24.2 52.7 23.5 52.7 23.1 52.2L19.3 48C18.9 47.6 18.9 46.9 19.4 46.5L23.6 42.7C24 42.3 24.7 42.3 25.1 42.8L28.9 47C29.3 47.4 29.3 48.1 28.8 48.5Z" fill="#F8FCFF"/>
<path d="M27.6 33.4999L24.3 29.8999C23.9 29.4999 23.9 28.7999 24.4 28.3999L28 25.0999C28.4 24.6999 29.1 24.6999 29.5 25.1999L32.8 28.7999C33.2 29.1999 33.2 29.8999 32.7 30.2999L29.1 33.5999C28.7 33.9999 28 33.8999 27.6 33.4999Z" fill="#F8FCFF"/>
<path d="M46.6 41.9L45.5001 43.1C44.9001 43.8 45.0001 44.8 45.7001 45.5L49.1 48.4C49.8 49 50.9001 48.9 51.5001 48.2L53.0001 46.5C49.6 45.6 47.7 43.6 46.6 41.9Z" fill="#F8E6D8"/>
<path d="M28.1 35.1C28 35.2 28 35.2 28.1 35.1C28.1 35.7 28.2 39 30.3 41.9C32.6 45 38.2 45.6 38.2 45.6C38.2 45.6 40.8 43.1 35 37.8C32.3 35.4 28.6 35.2 28.1 35.1Z" fill="#F1614C"/>
<path d="M39.7 44C39.7 44 45.5999 43.7 48.0999 40.3C50.5999 36.9 50.7 32.9 50.7 32.9L39.7 44Z" fill="#51B851"/>
<path d="M39.7 44C39.7 44 40 38.1 43.4 35.6C46.8 33.1 50.7999 33 50.7999 33L39.7 44Z" fill="#91C84A"/>
<path d="M43.5999 52C42.9999 52 39.8 52.2 37 54.3C34 56.5 33.7 61.7 33.7 61.7C33.7 61.7 38.9 61.4 41.2 58.5C43.4 55.8 43.5999 52.6 43.5999 52Z" fill="#C24647"/>
<path d="M35.7 59.7999C35.7 59.7999 40.4999 59.4999 42.5999 56.7999C44.6999 53.9999 44.7 50.7 44.7 50.7L35.7 59.7999Z" fill="#51B851"/>
<path d="M35.7 59.8C35.7 59.8 36 55.0001 38.7 52.9001C41.5 50.8001 44.7999 50.8 44.7999 50.8L35.7 59.8Z" fill="#91C84A"/>
<path d="M39.7 44C39.7 44 33.8 43.7 31.2 40.3C28.7 37 28.6 33 28.6 33L39.7 44Z" fill="#51B851"/>
<path d="M39.7 44C39.7 44 39.3 38.1 36 35.6C32.6 33.1 28.6 33 28.6 33L39.7 44Z" fill="#91C84A"/>
<path d="M54.8 33.7C55.2971 33.7 55.7 33.2971 55.7 32.8C55.7 32.303 55.2971 31.9 54.8 31.9C54.303 31.9 53.9 32.303 53.9 32.8C53.9 33.2971 54.303 33.7 54.8 33.7Z" fill="#9E613B"/>
<path d="M42.1 49C42.5419 49 42.9001 48.6419 42.9001 48.2C42.9001 47.7582 42.5419 47.4 42.1 47.4C41.6582 47.4 41.3 47.7582 41.3 48.2C41.3 48.6419 41.6582 49 42.1 49Z" fill="#9E613B"/>
<path d="M16.8 45.5C17.2418 45.5 17.6 45.1419 17.6 44.7C17.6 44.2582 17.2418 43.9 16.8 43.9C16.3582 43.9 16 44.2582 16 44.7C16 45.1419 16.3582 45.5 16.8 45.5Z" fill="#9E613B"/>
<path d="M18.4 32.4001C18.8418 32.4001 19.2 32.0419 19.2 31.6C19.2 31.1582 18.8418 30.8 18.4 30.8C17.9581 30.8 17.6 31.1582 17.6 31.6C17.6 32.0419 17.9581 32.4001 18.4 32.4001Z" fill="#9E613B"/>
<path d="M31.3 23.1C31.7418 23.1 32.1 22.7418 32.1 22.3C32.1 21.8582 31.7418 21.5 31.3 21.5C30.8582 21.5 30.5 21.8582 30.5 22.3C30.5 22.7418 30.8582 23.1 31.3 23.1Z" fill="#9E613B"/>
<path d="M39.1 37.6C39.5419 37.6 39.9001 37.2418 39.9001 36.8C39.9001 36.3582 39.5419 36 39.1 36C38.6582 36 38.3 36.3582 38.3 36.8C38.3 37.2418 38.6582 37.6 39.1 37.6Z" fill="#9E613B"/>
<path d="M40.9 61.7C41.3418 61.7 41.7 61.3418 41.7 60.9C41.7 60.4582 41.3418 60.1 40.9 60.1C40.4582 60.1 40.1 60.4582 40.1 60.9C40.1 61.3418 40.4582 61.7 40.9 61.7Z" fill="#9E613B"/>
<path d="M31.3309 62.8905C31.7678 62.5527 31.7112 61.7476 31.2046 61.0922C30.6979 60.4369 29.933 60.1794 29.4961 60.5172C29.0591 60.855 29.1157 61.6601 29.6224 62.3154C30.129 62.9708 30.8939 63.2283 31.3309 62.8905Z" fill="#F79E77"/>
<path d="M58.2985 38.3806C58.9853 37.5155 59.0862 36.4523 58.5239 36.0059C57.9616 35.5594 56.949 35.8988 56.2622 36.7639C55.5753 37.629 55.4744 38.6922 56.0367 39.1387C56.599 39.5851 57.6117 39.2457 58.2985 38.3806Z" fill="#F47859"/>
<path d="M42.2798 33.5285C42.9323 32.7067 43.0405 31.7064 42.5214 31.2943C42.0024 30.8822 41.0526 31.2144 40.4002 32.0362C39.7477 32.8581 39.6395 33.8584 40.1586 34.2705C40.6776 34.6825 41.6274 34.3504 42.2798 33.5285Z" fill="#F47859"/>
<path d="M22.0346 56.9107C22.5033 56.4421 22.2817 55.4607 21.5397 54.7187C20.7977 53.9767 19.8163 53.7551 19.3477 54.2237C18.879 54.6924 19.1006 55.6738 19.8426 56.4158C20.5846 57.1577 21.566 57.3793 22.0346 56.9107Z" fill="#F1614C"/>
<path d="M28.6522 42.2605C29.1208 41.7918 28.8992 40.8104 28.1572 40.0684C27.4152 39.3265 26.4338 39.1049 25.9652 39.5735C25.4966 40.0421 25.7182 41.0235 26.4602 41.7655C27.2022 42.5075 28.1836 42.7291 28.6522 42.2605Z" fill="#F1614C"/>
<path d="M39.1868 49.6639C39.702 49.0151 39.7689 48.2107 39.3363 47.8673C38.9038 47.5239 38.1356 47.7715 37.6204 48.4203C37.1053 49.0691 37.0384 49.8735 37.4709 50.2169C37.9035 50.5603 38.6717 50.3127 39.1868 49.6639Z" fill="#F79E77"/>
<path d="M31.598 47.3642C31.9676 47.2506 32.1355 46.7305 31.9732 46.2027C31.8109 45.6748 31.3798 45.339 31.0102 45.4526C30.6407 45.5662 30.4728 46.0863 30.6351 46.6141C30.7974 47.142 31.2285 47.4778 31.598 47.3642Z" fill="#F79E77"/>
<path d="M17.0777 47.8456C17.4472 47.732 17.6151 47.212 17.4528 46.6841C17.2905 46.1562 16.8594 45.8204 16.4899 45.934C16.1203 46.0477 15.9524 46.5677 16.1147 47.0956C16.277 47.6234 16.7081 47.9593 17.0777 47.8456Z" fill="#F79E77"/>
<path d="M46.6 54.9C47.5389 54.9 48.3 54.3627 48.3 53.7C48.3 53.0373 47.5389 52.5 46.6 52.5C45.6611 52.5 44.9 53.0373 44.9 53.7C44.9 54.3627 45.6611 54.9 46.6 54.9Z" fill="#FEF4C2"/>
<path d="M21.9128 29.0614C22.3814 28.5927 22.2231 27.6747 21.5593 27.0108C20.8954 26.3469 19.9773 26.1886 19.5087 26.6572C19.0401 27.1258 19.1983 28.0439 19.8622 28.7078C20.5261 29.3717 21.4442 29.53 21.9128 29.0614Z" fill="#FEF4C2"/>
<path d="M22.7001 39.3C22.7001 41.1 21.3 42.5 19.5 42.5C17.7 42.5 16.3 41.1 16.3 39.3C16.3 37.5 17.7 36.1 19.5 36.1C20.4 36.1 18.6001 38.4 19.2001 39C19.7001 39.6 22.7001 38.4 22.7001 39.3Z" fill="#C24647"/>
<path d="M52.2804 31.3196C52.8284 30.9468 52.8446 30.0153 52.3166 29.239C51.7886 28.4626 50.9163 28.1354 50.3683 28.5081C49.8202 28.8808 49.804 29.8123 50.3321 30.5887C50.8601 31.3651 51.7324 31.6923 52.2804 31.3196Z" fill="#F8FCFF"/>
<path d="M27.1294 23.437C27.4924 23.304 27.6326 22.7758 27.4427 22.2572C27.2527 21.7386 26.8044 21.426 26.4414 21.559C26.0783 21.692 25.9381 22.2202 26.1281 22.7388C26.318 23.2574 26.7663 23.57 27.1294 23.437Z" fill="#F8FCFF"/>
<path d="M48.1734 29.4915C49.4521 28.6218 49.6074 26.6211 48.5203 25.0227C47.4332 23.4243 45.5153 22.8335 44.2366 23.7032C42.9579 24.5729 42.8025 26.5737 43.8897 28.1721C44.9768 29.7705 46.8947 30.3612 48.1734 29.4915Z" fill="#F8FCFF"/>
<path d="M18.4 35.6C18 36.1 17.7 36.8 17.7 37.6C17.7 39.4 19.1 40.8 20.9 40.8C21.4 40.8 21.7999 40.7 22.2999 40.5C21.5999 40.2 20.8999 39.7 20.2999 39.1C19.1999 38 18.6 36.8 18.4 35.6Z" fill="#364F76"/>
<path d="M22.4 36.1C23.2 37 22.6 38.8 22.6 38.8C22.6 38.8 22.6 37.3 21.7 36.7C20.8 36 19.4 36.1 19.4 36.1C19.4 36.1 21.4 35 22.4 36.1Z" fill="#F1614C"/>
<path d="M20.9 34.4C19.9 34.4 19 34.9 18.4 35.6C18.6 36.8 19.2 38 20.2 39.1C20.8 39.7 21.5 40.2 22.2 40.5C23.3 40 24 38.9 24 37.6C24 35.8 22.6 34.4 20.9 34.4ZM21.2 38.9C20.4 38.9 19.7 38.2 19.7 37.4C19.7 36.6 20.4 35.9 21.2 35.9C22 35.9 22.7 36.6 22.7 37.4C22.7 38.2 22 38.9 21.2 38.9Z" fill="#647AA4"/>
<defs>
<linearGradient id="paint0_linear_77_413" x1="0" y1="38.5616" x2="71.8715" y2="38.5616" gradientUnits="userSpaceOnUse">
<stop stop-color="#F47B20"/>
<stop offset="0.7514" stop-color="#FFD100"/>
<stop offset="1" stop-color="#FFD100"/>
</linearGradient>
</defs>
</svg>
