<svg width="119" height="93" viewBox="0 0 119 93" fill="none" xmlns="http://www.w3.org/2000/svg">
<path d="M14.5406 91.2892L10.4254 92.9316V90.0574H4.11527V91.2892L0 92.9316V87.1148H1.30317L2.53775 81.5718C2.74352 80.4768 3.22363 79.6556 3.84092 79.1082C4.45821 78.5607 5.28127 78.287 6.2415 78.287H13.1689V87.1148H14.472V91.2892H14.5406ZM9.0536 87.1832V81.0927H7.68184C7.13314 81.0927 6.72161 81.298 6.44726 81.7771C6.2415 82.0508 6.10432 82.4614 6.03573 82.872L5.14409 87.1832H9.0536Z" fill="black"/>
<path d="M29.4241 86.5673C29.4241 87.7307 29.0812 88.5519 28.4639 89.1678C27.8466 89.7837 26.955 90.0574 25.9261 90.0574H16.804V81.8455C16.804 80.6821 17.1469 79.8609 17.7642 79.245C18.3815 78.6291 19.2731 78.3554 20.3019 78.3554H29.4241V86.5673ZM25.3089 85.6093V81.0927H22.5653C21.8795 81.0927 21.3993 81.298 21.1936 81.7086C21.0564 81.9139 20.9878 82.2561 20.9878 82.6667V87.1832H23.7313C24.4172 87.1832 24.8973 86.9779 25.1031 86.5673C25.2403 86.362 25.3089 86.0199 25.3089 85.6093Z" fill="black"/>
<path d="M45.8168 90.8786L41.7016 89.2362V85.0618L39.2324 86.9095L36.7632 85.0618V89.2362L32.6479 90.8786V77.3973L39.2324 82.4614L45.8168 77.4658V90.8786Z" fill="black"/>
<path d="M55.1447 83.2825L54.1159 84.9933H49.3147L50.3435 83.2825H55.1447Z" fill="black"/>
<path d="M70.5083 90.0574H58.6426V81.8455C58.6426 80.6821 58.9855 79.8609 59.6028 79.245C60.2201 78.6291 61.1117 78.3554 62.1406 78.3554H70.5769L68.8622 81.2296H64.404C63.7181 81.2296 63.238 81.4349 63.0322 81.8455C62.895 82.0508 62.8264 82.3929 62.8264 82.8035V87.1148H68.8622L70.5083 90.0574Z" fill="black"/>
<path d="M85.5976 78.3554L82.0996 84.4459L83.9515 86.7042H80.865L78.9446 90.1258H74.8293L77.0927 86.7042H76.2696L71.3313 78.3554H76.0639L78.9446 83.2826L81.7567 78.3554H85.5976Z" fill="black"/>
<path d="M103.225 90.0574H87.1067V77.4658L91.222 79.1766V87.1832H93.0738V77.5342L97.1891 79.245V87.2516H99.041V79.245L103.156 77.6026V90.0574H103.225Z" fill="black"/>
<path d="M119 90.8786L114.885 89.2362V82.872L110.564 84.7881V89.1678L106.448 90.8101V77.3973L110.564 79.1082V81.298L119 77.4658V90.8786Z" fill="black"/>
<path d="M57.0652 0L100.413 44.8918L99.3154 46.0552L54.0474 3.01104L57.0652 0Z" fill="black"/>
<path d="M66.5987 0L23.0454 45.0287L24.1428 46.1921L69.548 3.01104L66.5987 0Z" fill="black"/>
<path d="M67.079 62.2737C68.9309 62.3422 70.7141 62.2737 72.4288 62.3422C74.1435 62.4106 75.3095 61.521 76.4755 60.2207C77.7101 58.8521 77.9159 56.7991 77.9845 54.9514C78.2588 49.7505 78.1902 44.4812 77.8473 39.2803C77.7101 37.1589 77.5043 34.2163 76.064 32.6424C74.6922 31.1369 72.4974 30.7263 70.5084 30.4525C65.2957 29.6998 59.9458 30.1104 54.596 30.1788C52.4698 30.1788 49.5205 30.3841 48.0116 31.8896C46.5026 33.3267 46.0225 35.6534 45.8167 37.7064C45.268 43.5916 45.268 49.4084 45.0623 55.2936C44.9937 57.3466 44.7879 59.7417 46.2283 61.2472C47.5314 62.6159 49.6577 62.7528 51.5781 62.7528C55.6248 62.8212 59.6029 62.8896 63.6496 62.8896" fill="white"/>
<path d="M67.079 63.1634C70.92 63.2318 74.8295 63.9161 77.3672 60.426C79.4935 57.5519 78.9447 52.83 79.0133 49.4768C79.0819 45.0971 79.1505 40.5806 78.4646 36.2009C77.9159 32.8477 76.2012 30.7947 72.8404 29.9735C68.4508 28.8786 63.7868 29.0839 59.3286 29.2207C55.9678 29.2892 51.7839 28.8102 48.7661 30.3841C45.4053 32.1634 45.1309 36.4062 44.9252 39.6909C44.5822 44.4128 44.5136 49.1347 44.3764 53.8565C44.2393 57.5519 43.8277 62 48.286 63.1634C50.5494 63.7792 53.0185 63.5055 55.3505 63.5739C58.1626 63.6424 60.9061 63.6424 63.7182 63.7108C64.8156 63.7108 64.8156 62 63.7182 62C59.9459 61.9316 56.105 61.8631 52.3326 61.8631C50.7551 61.8631 48.9718 61.9316 47.6001 61.1104C45.8168 60.0155 46.0226 57.6887 46.0911 55.8411C46.2283 52.1457 46.2969 48.5188 46.4341 44.8234C46.5713 41.4018 46.2283 36.9536 47.8744 33.8057C49.452 30.8631 53.2243 31.1369 56.105 31.0684C59.8773 31 63.6496 30.7947 67.3534 31.0684C70.4398 31.2737 75.241 31.3422 76.407 34.9007C77.4358 37.9117 77.23 41.6071 77.2986 44.8234C77.3672 48.7925 77.6416 53.0353 76.9557 57.0044C76.6813 58.8521 75.5154 60.8366 73.6635 61.4525C72.7033 61.7263 71.5373 61.5894 70.5084 61.5894C69.411 61.5894 68.245 61.5894 67.1476 61.5894C65.9816 61.4525 65.9816 63.1634 67.079 63.1634Z" fill="black"/>
<path d="M72.1545 40.0331C71.3314 37.5011 69.9597 36.4746 68.9994 36.2009C66.2559 35.2428 58.2997 35.6534 55.3504 35.8587C53.087 36.064 51.9896 37.0905 51.5095 41.3333C58.2997 37.7064 67.5591 39.0066 72.1545 40.0331Z" fill="#EF4123"/>
<path d="M52.5384 42.1545C52.5384 42.1545 52.0583 42.3598 51.3724 42.6335C51.3039 43.5916 51.2353 44.6865 51.1667 45.9867C51.0981 47.9713 51.0981 49.6137 51.1667 50.9139C51.3724 50.7086 51.6468 50.4349 51.9211 50.1611C57.8197 44.3444 68.3137 43.5232 72.7719 43.3863C72.6347 42.0861 72.4289 41.0596 72.1546 40.17C68.1765 39.6909 60.2203 39.1435 52.5384 42.1545Z" fill="#EF4123"/>
<path d="M58.094 56.936C61.8663 57.0728 66.9418 57.0044 68.5194 56.8676C70.7142 56.6623 72.6346 55.0883 72.9776 47.6976C70.2341 48.5188 63.1695 51.1192 58.094 56.936Z" fill="#EF4123"/>
<path d="M72.9091 47.5607C72.9091 47.3554 72.9091 47.1501 72.9091 46.9448C72.9777 45.713 72.9091 44.6181 72.8406 43.66C68.9996 44.0022 60.6319 45.3709 53.5674 50.5033C53.5674 50.5033 52.4699 51.3929 51.304 52.2141C51.6469 55.362 52.6071 56.3201 54.1846 56.6622C54.7333 56.7991 55.625 56.8675 56.7224 56.936C60.9063 50.8455 69.8227 48.3135 72.9091 47.5607Z" fill="#EF4123"/>
</svg>
