<svg width="168" height="66" viewBox="0 0 168 66" fill="none" xmlns="http://www.w3.org/2000/svg">
<g clip-path="url(#clip0_410_5030)">
<path d="M90.6246 27.7802H80.1136V29.5496C80.1136 29.815 80.0253 30.0804 79.7603 30.3458C79.4953 30.6113 79.3186 30.6997 78.9653 30.6997H77.5521C77.2871 30.6997 77.0221 30.6113 76.7571 30.3458C76.4921 30.0804 76.4038 29.9035 76.4038 29.5496V25.2145C76.4038 24.9491 76.4921 24.6836 76.7571 24.4182C77.0221 24.1528 77.1988 24.0643 77.5521 24.0643H78.2587C78.7887 23.445 79.2303 22.2064 79.7603 20.437C80.2902 18.6676 80.5552 16.5442 80.7319 14.067L80.8202 11.7668C80.8202 11.5013 80.9969 11.2359 81.1735 10.9705C81.4385 10.7936 81.7035 10.6166 81.9685 10.6166H90.8013C91.0663 10.6166 91.3313 10.7051 91.5962 10.9705C91.7729 11.1475 91.9495 11.4129 91.9495 11.7668V24.0643H93.0978C93.3628 24.0643 93.6278 24.1528 93.8928 24.4182C94.1578 24.6836 94.2461 24.8606 94.2461 25.2145V29.5496C94.2461 29.815 94.1578 30.0804 93.8928 30.3458C93.6278 30.6113 93.4511 30.6997 93.0978 30.6997H91.6846C91.4196 30.6997 91.1546 30.6113 90.8896 30.3458C90.713 30.1689 90.5363 29.9035 90.5363 29.5496V27.7802H90.6246ZM82.5868 24.0643H88.1514V14.3324H84.7066L84.4417 17.1635C84.3533 18.4906 84.0883 19.9062 83.6467 21.3217C83.2051 22.8257 82.8518 23.7105 82.5868 24.0643Z" fill="#3E595F"/>
<path d="M95.3059 19.1984C95.3059 16.7212 96.1892 14.5979 97.8674 12.9169C99.5457 11.2359 101.666 10.4397 104.404 10.4397C107.054 10.4397 109.173 11.2359 110.94 12.8284C112.618 14.4209 113.501 16.5442 113.501 19.1984C113.501 21.7641 112.618 23.8874 110.94 25.4799C109.173 27.1609 107.054 27.9571 104.492 27.9571C101.842 27.9571 99.634 27.1609 98.0441 25.5684C96.1009 24.0643 95.3059 21.8526 95.3059 19.1984ZM99.4573 19.1984C99.4573 20.6139 99.899 21.8525 100.871 22.9142C101.842 23.8874 102.99 24.4182 104.315 24.4182C105.905 24.4182 107.054 23.9759 107.937 23.0027C108.82 22.0295 109.262 20.7909 109.262 19.2869C109.262 17.7828 108.82 16.5442 107.848 15.571C106.877 14.5979 105.729 14.1555 104.315 14.1555C102.902 14.1555 101.754 14.5979 100.782 15.571C99.899 16.4558 99.4573 17.6944 99.4573 19.1984Z" fill="#3E595F"/>
<path d="M123.924 21.8525L120.391 16.9866V26.63C120.391 26.8954 120.303 27.1609 120.038 27.4263C119.861 27.6032 119.596 27.7802 119.243 27.7802H117.565C117.3 27.7802 117.035 27.6917 116.77 27.4263C116.593 27.2493 116.417 26.9839 116.417 26.63V11.8552C116.417 11.5898 116.505 11.3244 116.77 11.059C116.946 10.882 117.211 10.7051 117.565 10.7051H119.596C120.126 10.7051 120.48 10.9705 120.833 11.4129L125.603 17.8713L130.107 11.4129C130.461 10.9705 130.814 10.7051 131.344 10.7051H133.199C133.464 10.7051 133.729 10.7936 133.994 11.059C134.17 11.2359 134.347 11.5013 134.347 11.8552V26.63C134.347 26.8954 134.259 27.1609 133.994 27.4263C133.817 27.6032 133.552 27.7802 133.199 27.7802H131.521C131.256 27.7802 130.991 27.6917 130.726 27.4263C130.549 27.2493 130.372 26.9839 130.372 26.63V16.8981L126.839 21.8525C126.398 22.3834 125.956 22.7373 125.338 22.7373C124.808 22.7373 124.366 22.4718 123.924 21.8525Z" fill="#3E595F"/>
<path d="M90.183 41.8472V56.622C90.183 56.8874 90.0947 57.1528 89.8297 57.4182C89.653 57.5952 89.388 57.7721 89.0347 57.7721H87.4448C87.1798 57.7721 86.9149 57.6836 86.6499 57.4182C86.4732 57.2413 86.2966 56.9759 86.2966 56.622V44.3244H80.3786V56.622C80.3786 56.8874 80.2902 57.1528 80.0253 57.4182C79.8486 57.5952 79.5836 57.7721 79.2303 57.7721H77.5521C77.2871 57.7721 77.0221 57.6836 76.7571 57.4182C76.5805 57.2413 76.4038 56.9759 76.4038 56.622V41.8472C76.4038 41.5818 76.4921 41.3164 76.7571 41.0509C76.9338 40.874 77.1988 40.6971 77.5521 40.6971H89.0347C89.2997 40.6971 89.5647 40.7855 89.8297 41.0509C90.0947 41.2279 90.183 41.4933 90.183 41.8472Z" fill="#3E595F"/>
<path d="M108.202 57.7721H106.524C106.259 57.7721 105.994 57.6836 105.729 57.4182C105.552 57.2413 105.375 56.9759 105.375 56.622V47.1555L98.309 57.0643C97.9557 57.5067 97.6024 57.7721 97.0724 57.7721H95.5709C95.3059 57.7721 95.0409 57.6836 94.7759 57.4182C94.5993 57.2413 94.4226 56.9759 94.4226 56.622V41.8472C94.4226 41.5818 94.5109 41.3164 94.7759 41.0509C94.9526 40.874 95.2176 40.6971 95.5709 40.6971H97.2491C97.5141 40.6971 97.7791 40.7855 98.0441 41.0509C98.2207 41.2279 98.3974 41.4933 98.3974 41.8472V51.3137L105.464 41.4048C105.817 40.9625 106.17 40.6971 106.7 40.6971H108.202C108.467 40.6971 108.732 40.7855 108.997 41.0509C109.173 41.2279 109.35 41.4933 109.35 41.8472V56.622C109.35 56.8874 109.262 57.1528 108.997 57.4182C108.82 57.5952 108.555 57.7721 108.202 57.7721Z" fill="#3E595F"/>
<path d="M128.517 60.6917H127.104C126.839 60.6917 126.574 60.6032 126.309 60.3378C126.132 60.1609 125.956 59.8954 125.956 59.5416V57.7721H114.826C114.562 57.7721 114.297 57.6836 114.032 57.4182C113.855 57.2413 113.678 56.9759 113.678 56.622V41.8472C113.678 41.5818 113.767 41.3164 114.032 41.0509C114.208 40.874 114.473 40.6971 114.826 40.6971H116.505C116.77 40.6971 117.035 40.7855 117.3 41.0509C117.476 41.2279 117.653 41.4933 117.653 41.8472V54.1448H123.483V41.8472C123.483 41.5818 123.571 41.3164 123.836 41.0509C124.013 40.874 124.278 40.6971 124.631 40.6971H126.309C126.574 40.6971 126.839 40.7855 127.104 41.0509C127.281 41.2279 127.457 41.4933 127.457 41.8472V54.1448H128.606C128.871 54.1448 129.136 54.2332 129.401 54.4987C129.577 54.6756 129.754 54.941 129.754 55.2949V59.63C129.754 59.8954 129.666 60.1609 129.401 60.4263C129.047 60.5147 128.782 60.6917 128.517 60.6917Z" fill="#3E595F"/>
<path d="M147.066 60.6917H145.653C145.388 60.6917 145.123 60.6032 144.858 60.3378C144.681 60.1609 144.505 59.8954 144.505 59.5416V57.7721H133.375C133.11 57.7721 132.845 57.6836 132.58 57.4182C132.404 57.2413 132.227 56.9759 132.227 56.622V41.8472C132.227 41.5818 132.315 41.3164 132.58 41.0509C132.757 40.874 133.022 40.6971 133.375 40.6971H135.054C135.319 40.6971 135.584 40.7855 135.849 41.0509C136.025 41.2279 136.202 41.4933 136.202 41.8472V54.1448H142.031V41.8472C142.031 41.5818 142.12 41.3164 142.385 41.0509C142.561 40.874 142.826 40.6971 143.18 40.6971H144.858C145.123 40.6971 145.388 40.7855 145.653 41.0509C145.83 41.2279 146.006 41.4933 146.006 41.8472V54.1448H147.155C147.419 54.1448 147.684 54.2332 147.949 54.4987C148.126 54.6756 148.303 54.941 148.303 55.2949V59.63C148.303 59.8954 148.214 60.1609 147.949 60.4263C147.684 60.5147 147.419 60.6917 147.066 60.6917Z" fill="#3E595F"/>
<path d="M150.864 56.622V41.8472C150.864 41.5818 150.953 41.3164 151.218 41.0509C151.394 40.874 151.659 40.6971 152.013 40.6971H153.691C153.956 40.6971 154.221 40.7855 154.486 41.0509C154.662 41.2279 154.839 41.4933 154.839 41.8472V46.0054C155.281 45.9169 155.811 45.9169 156.341 45.9169C158.372 45.9169 159.874 46.4477 160.934 47.4209C161.994 48.3941 162.524 49.8097 162.524 51.6676C162.524 53.5255 161.905 55.0295 160.669 56.0912C159.432 57.1528 157.754 57.7721 155.546 57.7721C155.016 57.7721 153.867 57.7721 152.101 57.6836C151.836 57.6836 151.571 57.5952 151.306 57.3298C150.953 57.1528 150.864 56.8874 150.864 56.622ZM154.751 49.7212V54.0563C155.281 54.1448 155.634 54.1448 155.899 54.1448C157.489 54.1448 158.284 53.3485 158.284 51.756C158.284 51.0483 158.107 50.5174 157.666 50.1635C157.224 49.8097 156.694 49.6327 155.899 49.6327C155.722 49.6327 155.369 49.6327 154.751 49.7212ZM168 41.8472V56.622C168 56.8874 167.912 57.1528 167.647 57.4182C167.47 57.5952 167.205 57.7721 166.852 57.7721H165.173C164.908 57.7721 164.643 57.6836 164.378 57.4182C164.202 57.2413 164.025 56.9759 164.025 56.622V41.8472C164.025 41.5818 164.113 41.3164 164.378 41.0509C164.555 40.874 164.82 40.6971 165.173 40.6971H166.852C167.117 40.6971 167.382 40.7855 167.647 41.0509C167.912 41.2279 168 41.4933 168 41.8472Z" fill="#3E595F"/>
<path d="M48.9338 66H14.5741C6.53628 66 0 59.63 0 51.8445V30.3458C0 25.5684 2.38486 20.9678 6.27129 18.0483L23.7603 4.95442C28.4416 1.41554 35.0662 1.41554 39.836 4.95442L57.3249 18.1367C61.2114 21.0563 63.5962 25.5684 63.5962 30.3458V51.8445C63.5079 59.63 56.9716 66 48.9338 66ZM31.7098 8.40482C30.2082 8.40482 28.6183 8.84718 27.3817 9.82037L9.89274 23.0027C7.50789 24.7721 6.09464 27.5147 6.09464 30.3458V51.8445C6.09464 56.2681 9.89274 59.8954 14.4858 59.8954H48.8454C53.5268 59.8954 57.2366 56.2681 57.2366 51.8445V30.3458C57.2366 27.5147 55.8233 24.7721 53.4385 23.0027L36.1262 9.82037C34.8013 8.84718 33.2997 8.40482 31.7098 8.40482Z" fill="url(#paint0_linear_410_5030)"/>
<path d="M53.9683 12.563C53.9683 12.563 58.9146 8.93566 58.6497 5.57373C58.3847 2.2118 55.4698 0 55.4698 0L53.9683 12.563Z" fill="#51B851"/>
<path d="M53.9684 12.563C53.9684 12.563 49.9053 9.1126 50.9652 5.75067C52.0252 2.38874 55.4699 0 55.4699 0L53.9684 12.563Z" fill="#91C84A"/>
<path d="M12.7194 34.7694C13.3047 34.7694 13.7793 34.0961 13.7793 33.2654C13.7793 32.4348 13.3047 31.7614 12.7194 31.7614C12.134 31.7614 11.6594 32.4348 11.6594 33.2654C11.6594 34.0961 12.134 34.7694 12.7194 34.7694Z" fill="#FEF4C2"/>
<path d="M28.7951 56.445C21.2873 56.3566 15.8992 56.3566 12.6311 52.3753C9.71628 48.748 9.98127 42.555 10.2463 37.689L10.3346 36.0965C10.5996 31.1421 10.6879 28.6649 11.8362 26.807C13.0727 24.6836 24.997 15.0402 30.65 15.0402C35.5964 15.1287 40.9844 18.8445 43.8993 20.7909C44.5175 21.2332 45.0475 21.5871 45.4008 21.7641L45.8425 22.0295C47.874 23.1796 50.6122 24.8606 52.1138 28.5764C53.1737 31.319 54.5869 49.8981 52.5554 52.2869C49.0223 56.445 36.568 56.445 31.7983 56.445C31.7983 56.445 29.7668 56.445 28.7951 56.445Z" fill="#F79B71"/>
<path d="M30.6499 14.1555L30.7383 15.9249C35.3313 16.0134 40.631 19.5523 43.4575 21.4987C44.0758 21.941 44.6941 22.2949 45.0474 22.5603L45.489 22.8257C47.5206 23.9759 49.9938 25.4799 51.407 28.9303C52.5553 31.7614 53.6152 49.4558 52.0253 51.6676C48.7572 55.4719 36.0379 55.4719 31.8865 55.4719C30.8266 55.4719 29.855 55.4719 28.8834 55.4719C20.9338 55.3834 16.2524 55.2064 13.4259 51.6676C10.6878 48.3056 10.9528 42.2895 11.2177 37.6005L11.3061 36.3619V36.008C11.5711 31.2306 11.6594 28.7534 12.631 27.1609C13.6026 25.4799 25.4386 15.9249 30.6499 15.9249V14.1555ZM30.6499 14.1555C24.6436 14.1555 12.366 24.0643 11.1294 26.1877C9.8045 28.311 9.71617 30.9651 9.45118 36.2735C9.1862 41.5818 8.5679 48.571 12.0127 52.8177C15.4575 57.0643 20.9338 57.1528 28.8834 57.2413C29.855 57.2413 30.8266 57.2413 31.8865 57.2413C39.6594 57.2413 49.9054 56.7989 53.3502 52.8177C55.7351 50.0751 54.2335 31.0536 53.0853 28.2225C51.3187 23.8874 48.0506 22.2064 45.9307 20.9678C43.8108 19.8177 36.9212 14.244 30.6499 14.1555Z" fill="#E55F44"/>
<path d="M33.0348 41.9357C26.4102 38.7507 18.9906 34.0617 10.7761 26.807C9.80449 28.8418 9.71617 31.496 9.45118 36.2735C9.1862 41.5818 8.5679 48.571 12.0127 52.8177C15.4575 57.0643 20.9338 57.1528 28.8834 57.2413C36.7446 57.3298 49.4638 57.3298 53.3502 52.8177C53.9685 52.1099 54.3218 50.1635 54.4985 47.6863C48.2272 47.067 41.2493 46.0054 33.0348 41.9357Z" fill="#E55F44"/>
<path d="M42.0442 44.5013L38.3344 41.2279C37.8928 40.874 37.8928 40.2547 38.2461 39.9008L41.5142 36.185C41.8675 35.7426 42.4858 35.7426 42.8391 36.0965L46.5489 39.37C46.9906 39.7239 46.9906 40.3432 46.6372 40.697L43.3691 44.4129C43.0158 44.8552 42.3975 44.8552 42.0442 44.5013Z" fill="#F1614C"/>
<path d="M44.3406 29.992C44.2523 29.992 44.2523 29.992 44.3406 29.992C43.7223 29.992 40.2775 30.2574 37.2743 32.4692C34.0945 34.8579 33.7412 40.3432 33.7412 40.3432C33.7412 40.3432 39.3942 39.9893 41.7791 36.8928C43.9873 33.9732 44.2523 30.5228 44.3406 29.992Z" fill="#F1614C"/>
<path d="M43.7224 43.1743L40.0126 39.9008C39.571 39.5469 39.571 38.9276 39.9243 38.5737L43.1924 34.8579C43.5458 34.4156 44.164 34.4156 44.5174 34.7694L48.2271 38.0429C48.6688 38.3968 48.6688 39.0161 48.3155 39.37L45.0473 43.0858C44.694 43.4397 44.0757 43.5282 43.7224 43.1743Z" fill="#F8FCFF"/>
<path d="M32.7698 31.8499H26.9401C26.4101 31.8499 25.9685 31.4075 25.9685 30.8767V25.0375C25.9685 24.5067 26.4101 24.0643 26.9401 24.0643H32.7698C33.2997 24.0643 33.7414 24.5067 33.7414 25.0375V30.8767C33.7414 31.4075 33.2997 31.8499 32.7698 31.8499Z" fill="#F1614C"/>
<path d="M24.6436 32.6461L20.1389 27.6032C19.7856 27.2493 19.7856 26.63 20.2272 26.2761L23.407 23.3566C23.7604 23.0027 24.3786 23.0027 24.732 23.445L29.2367 28.4879C29.59 28.8418 29.59 29.4611 29.1484 29.815L25.9686 32.7346C25.6152 33.0885 24.9969 33 24.6436 32.6461Z" fill="#F1614C"/>
<path d="M28.9716 52.6408L22.9653 52.9946C22.4353 52.9946 21.9936 52.6408 21.9053 52.1099L21.552 46.0938C21.552 45.563 21.9053 45.1206 22.4353 45.0322L28.4416 44.6783C28.9716 44.6783 29.4132 45.0322 29.5015 45.563L29.8548 51.5791C29.9432 52.1099 29.5015 52.6408 28.9716 52.6408Z" fill="#C24647"/>
<path d="M34.0947 30.0804H28.2651C27.7351 30.0804 27.2935 29.6381 27.2935 29.1072V23.2681C27.2935 22.7373 27.7351 22.2949 28.2651 22.2949H34.0947C34.6247 22.2949 35.0663 22.7373 35.0663 23.2681V29.1072C35.0663 29.6381 34.6247 30.0804 34.0947 30.0804Z" fill="#F8FCFF"/>
<path d="M24.1136 44.059L20.4038 47.4209C19.9621 47.7748 19.4322 47.7748 19.0789 47.3324L15.7224 43.6166C15.3691 43.2627 15.3691 42.6434 15.8107 42.2895L19.5205 38.9276C19.8738 38.5737 20.4921 38.5737 20.8454 39.0161L24.2019 42.7319C24.5552 43.1743 24.4669 43.7051 24.1136 44.059Z" fill="#C24647"/>
<path d="M30.2081 51.1367L24.2018 51.4906C23.6719 51.4906 23.2302 51.1367 23.1419 50.6059L22.7886 44.5898C22.7886 44.059 23.1419 43.6166 23.6719 43.5282L29.6782 43.1743C30.2081 43.1743 30.6498 43.5282 30.7381 44.059L31.0914 50.0751C31.1797 50.6059 30.7381 51.1367 30.2081 51.1367Z" fill="#F8FCFF"/>
<path d="M25.4385 42.9088L21.7287 46.2708C21.3754 46.6247 20.7571 46.6247 20.4038 46.1823L17.0473 42.4665C16.694 42.1126 16.694 41.4933 17.1357 41.1394L20.8455 37.7775C21.1988 37.4236 21.8171 37.4236 22.1704 37.866L25.5268 41.5818C25.8802 41.9357 25.8802 42.555 25.4385 42.9088Z" fill="#F8FCFF"/>
<path d="M24.3784 29.6381L21.4636 26.4531C21.1103 26.0992 21.1103 25.4799 21.5519 25.126L24.7317 22.2064C25.0851 21.8525 25.7034 21.8525 26.0567 22.2949L28.9715 25.4799C29.3248 25.8338 29.3248 26.4531 28.8832 26.807L25.7034 29.7265C25.35 30.0804 24.7317 29.992 24.3784 29.6381Z" fill="#F8FCFF"/>
<path d="M41.1609 37.0697L40.1893 38.1314C39.6593 38.7507 39.7477 39.6354 40.366 40.2547L43.3691 42.8204C43.9874 43.3512 44.959 43.2627 45.489 42.6434L46.8139 41.1394C43.8107 40.3432 42.1325 38.5737 41.1609 37.0697Z" fill="#F8E6D8"/>
<path d="M24.8202 31.0536C24.7318 31.1421 24.7318 31.1421 24.8202 31.0536C24.8202 31.5845 24.9085 34.504 26.7634 37.0697C28.7949 39.8123 33.7413 40.3432 33.7413 40.3432C33.7413 40.3432 36.0378 38.1314 30.9148 33.4424C28.5299 31.319 25.2618 31.1421 24.8202 31.0536Z" fill="#F1614C"/>
<path d="M35.0662 38.9276C35.0662 38.9276 40.2775 38.6622 42.4857 35.6542C44.6939 32.6461 44.7823 29.1072 44.7823 29.1072L35.0662 38.9276Z" fill="#51B851"/>
<path d="M35.0662 38.9276C35.0662 38.9276 35.3311 33.7078 38.3343 31.496C41.3375 29.2842 44.8706 29.1957 44.8706 29.1957L35.0662 38.9276Z" fill="#91C84A"/>
<path d="M38.5111 46.0054C37.9811 46.0054 35.1546 46.1823 32.6814 48.0402C30.0316 49.9866 29.7666 54.5871 29.7666 54.5871C29.7666 54.5871 34.3597 54.3217 36.3912 51.756C38.3344 49.3673 38.5111 46.5362 38.5111 46.0054Z" fill="#C24647"/>
<path d="M31.5332 52.9062C31.5332 52.9062 35.7729 52.6407 37.6278 50.252C39.4827 47.7748 39.4827 44.8552 39.4827 44.8552L31.5332 52.9062Z" fill="#51B851"/>
<path d="M31.5332 52.9062C31.5332 52.9062 31.7982 48.6595 34.183 46.8016C36.6562 44.9437 39.5711 44.9437 39.5711 44.9437L31.5332 52.9062Z" fill="#91C84A"/>
<path d="M35.0661 38.9276C35.0661 38.9276 29.8548 38.6622 27.5582 35.6542C25.35 32.7346 25.2617 29.1957 25.2617 29.1957L35.0661 38.9276Z" fill="#51B851"/>
<path d="M35.0661 38.9276C35.0661 38.9276 34.7128 33.7078 31.798 31.496C28.7948 29.2842 25.2617 29.1957 25.2617 29.1957L35.0661 38.9276Z" fill="#91C84A"/>
<path d="M48.4038 29.815C48.8429 29.815 49.1988 29.4585 49.1988 29.0188C49.1988 28.579 48.8429 28.2225 48.4038 28.2225C47.9648 28.2225 47.6089 28.579 47.6089 29.0188C47.6089 29.4585 47.9648 29.815 48.4038 29.815Z" fill="#9E613B"/>
<path d="M37.1861 43.3512C37.5764 43.3512 37.8927 43.0343 37.8927 42.6434C37.8927 42.2525 37.5764 41.9357 37.1861 41.9357C36.7959 41.9357 36.4795 42.2525 36.4795 42.6434C36.4795 43.0343 36.7959 43.3512 37.1861 43.3512Z" fill="#9E613B"/>
<path d="M14.8392 40.2547C15.2295 40.2547 15.5458 39.9378 15.5458 39.5469C15.5458 39.156 15.2295 38.8391 14.8392 38.8391C14.4489 38.8391 14.1326 39.156 14.1326 39.5469C14.1326 39.9378 14.4489 40.2547 14.8392 40.2547Z" fill="#9E613B"/>
<path d="M16.2523 28.6649C16.6425 28.6649 16.9589 28.348 16.9589 27.9571C16.9589 27.5662 16.6425 27.2493 16.2523 27.2493C15.862 27.2493 15.5457 27.5662 15.5457 27.9571C15.5457 28.348 15.862 28.6649 16.2523 28.6649Z" fill="#9E613B"/>
<path d="M27.6466 20.437C28.0368 20.437 28.3532 20.1201 28.3532 19.7292C28.3532 19.3383 28.0368 19.0214 27.6466 19.0214C27.2563 19.0214 26.9399 19.3383 26.9399 19.7292C26.9399 20.1201 27.2563 20.437 27.6466 20.437Z" fill="#9E613B"/>
<path d="M34.5362 33.2654C34.9265 33.2654 35.2428 32.9485 35.2428 32.5576C35.2428 32.1667 34.9265 31.8499 34.5362 31.8499C34.146 31.8499 33.8296 32.1667 33.8296 32.5576C33.8296 32.9485 34.146 33.2654 34.5362 33.2654Z" fill="#9E613B"/>
<path d="M36.1263 54.5871C36.5166 54.5871 36.8329 54.2703 36.8329 53.8794C36.8329 53.4885 36.5166 53.1716 36.1263 53.1716C35.736 53.1716 35.4197 53.4885 35.4197 53.8794C35.4197 54.2703 35.736 54.5871 36.1263 54.5871Z" fill="#9E613B"/>
<path d="M27.6739 55.6404C28.0598 55.3415 28.0099 54.6292 27.5623 54.0494C27.1148 53.4696 26.4392 53.2418 26.0533 53.5407C25.6673 53.8395 25.7173 54.5518 26.1648 55.1316C26.6123 55.7114 27.288 55.9392 27.6739 55.6404Z" fill="#F79E77"/>
<path d="M51.494 33.956C52.1007 33.1906 52.1898 32.25 51.6931 31.855C51.1965 31.46 50.302 31.7603 49.6954 32.5257C49.0887 33.2911 48.9996 34.2317 49.4962 34.6267C49.9929 35.0216 50.8874 34.7214 51.494 33.956Z" fill="#F47859"/>
<path d="M37.3449 29.6633C37.9212 28.9362 38.0168 28.0512 37.5583 27.6866C37.0998 27.3221 36.261 27.6159 35.6846 28.343C35.1083 29.0701 35.0128 29.9551 35.4713 30.3197C35.9297 30.6843 36.7686 30.3904 37.3449 29.6633Z" fill="#F47859"/>
<path d="M19.4627 50.3499C19.8766 49.9353 19.6809 49.0671 19.0255 48.4106C18.3701 47.7542 17.5033 47.5581 17.0893 47.9727C16.6754 48.3873 16.8711 49.2556 17.5265 49.912C18.1819 50.5685 19.0488 50.7645 19.4627 50.3499Z" fill="#F1614C"/>
<path d="M25.3079 37.3886C25.7218 36.974 25.5261 36.1057 24.8707 35.4493C24.2153 34.7928 23.3485 34.5968 22.9345 35.0114C22.5206 35.426 22.7164 36.2942 23.3717 36.9507C24.0271 37.6071 24.894 37.8032 25.3079 37.3886Z" fill="#F1614C"/>
<path d="M34.6129 43.9386C35.0679 43.3646 35.127 42.6529 34.745 42.3491C34.3629 42.0453 33.6843 42.2643 33.2294 42.8383C32.7744 43.4124 32.7152 44.124 33.0973 44.4278C33.4794 44.7317 34.1579 44.5126 34.6129 43.9386Z" fill="#F79E77"/>
<path d="M27.91 41.904C28.2363 41.8035 28.3847 41.3434 28.2413 40.8764C28.098 40.4094 27.7172 40.1123 27.3908 40.2128C27.0644 40.3133 26.916 40.7734 27.0594 41.2404C27.2028 41.7074 27.5836 42.0046 27.91 41.904Z" fill="#F79E77"/>
<path d="M15.0843 42.3299C15.4107 42.2294 15.559 41.7693 15.4157 41.3023C15.2723 40.8352 14.8915 40.5381 14.5651 40.6387C14.2387 40.7392 14.0903 41.1993 14.2337 41.6663C14.3771 42.1333 14.7579 42.4304 15.0843 42.3299Z" fill="#F79E77"/>
<path d="M41.161 48.571C41.9903 48.571 42.6626 48.0957 42.6626 47.5094C42.6626 46.923 41.9903 46.4477 41.161 46.4477C40.3317 46.4477 39.6594 46.923 39.6594 47.5094C39.6594 48.0957 40.3317 48.571 41.161 48.571Z" fill="#FEF4C2"/>
<path d="M19.3552 25.7111C19.7691 25.2965 19.6293 24.4843 19.0429 23.897C18.4565 23.3096 17.6456 23.1696 17.2317 23.5842C16.8177 23.9988 16.9575 24.811 17.5439 25.3984C18.1303 25.9857 18.9413 26.1257 19.3552 25.7111Z" fill="#FEF4C2"/>
<path d="M20.0505 34.7694C20.0505 36.3619 18.8139 37.6005 17.224 37.6005C15.6341 37.6005 14.3975 36.3619 14.3975 34.7694C14.3975 33.1769 15.6341 31.9383 17.224 31.9383C18.0189 31.9383 16.429 33.9732 16.959 34.504C17.4006 35.0349 20.0505 33.9732 20.0505 34.7694Z" fill="#C24647"/>
<path d="M46.1782 27.709C46.6623 27.3792 46.6766 26.5551 46.2102 25.8682C45.7438 25.1813 44.9733 24.8919 44.4893 25.2216C44.0052 25.5514 43.9909 26.3755 44.4573 27.0624C44.9237 27.7492 45.6942 28.0387 46.1782 27.709Z" fill="#F8FCFF"/>
<path d="M23.9629 20.7351C24.2836 20.6175 24.4075 20.1502 24.2397 19.6914C24.0719 19.2325 23.6759 18.956 23.3552 19.0736C23.0346 19.1913 22.9107 19.6586 23.0785 20.1174C23.2463 20.5762 23.6423 20.8528 23.9629 20.7351Z" fill="#F8FCFF"/>
<path d="M42.5507 26.0917C43.6802 25.3223 43.8174 23.5521 42.8571 22.138C41.8969 20.7239 40.2029 20.2012 39.0734 20.9707C37.9439 21.7401 37.8067 23.5102 38.767 24.9244C39.7272 26.3385 41.4212 26.8611 42.5507 26.0917Z" fill="#F8FCFF"/>
<path d="M16.2523 31.496C15.899 31.9383 15.634 32.5576 15.634 33.2654C15.634 34.8579 16.8706 36.0965 18.4605 36.0965C18.9022 36.0965 19.2555 36.008 19.6971 35.8311C19.0788 35.5657 18.4605 35.1233 17.9306 34.5925C16.959 33.6193 16.429 32.5576 16.2523 31.496Z" fill="#364F76"/>
<path d="M19.7856 31.9383C20.4922 32.7346 19.9622 34.3271 19.9622 34.3271C19.9622 34.3271 19.9622 33 19.1673 32.4692C18.3723 31.8499 17.1357 31.9383 17.1357 31.9383C17.1357 31.9383 18.9023 30.9652 19.7856 31.9383Z" fill="#F1614C"/>
<path d="M18.4606 30.4343C17.5774 30.4343 16.7824 30.8767 16.2524 31.496C16.4291 32.5576 16.9591 33.6193 17.8423 34.5925C18.3723 35.1233 18.9906 35.5657 19.6089 35.8311C20.5805 35.3887 21.1988 34.4155 21.1988 33.2654C21.1988 31.6729 19.9622 30.4343 18.4606 30.4343ZM18.7256 34.4156C18.019 34.4156 17.4007 33.7962 17.4007 33.0885C17.4007 32.3807 18.019 31.7614 18.7256 31.7614C19.4323 31.7614 20.0505 32.3807 20.0505 33.0885C20.0505 33.7962 19.4323 34.4156 18.7256 34.4156Z" fill="#647AA4"/>
</g>
<defs>
<linearGradient id="paint0_linear_410_5030" x1="0" y1="34.1161" x2="63.4827" y2="34.1161" gradientUnits="userSpaceOnUse">
<stop stop-color="#F47B20"/>
<stop offset="0.7514" stop-color="#FFD100"/>
<stop offset="1" stop-color="#FFD100"/>
</linearGradient>
<clipPath id="clip0_410_5030">
<rect width="168" height="66" fill="white"/>
</clipPath>
</defs>
</svg>
