<svg width="14" height="14" viewBox="0 0 14 14" fill="none" xmlns="http://www.w3.org/2000/svg">
<path fill-rule="evenodd" clip-rule="evenodd" d="M1.11612 1.11612C1.60427 0.627961 2.39573 0.627961 2.88388 1.11612L7 5.23223L11.1161 1.11612C11.6043 0.627961 12.3957 0.627961 12.8839 1.11612C13.372 1.60427 13.372 2.39573 12.8839 2.88388L8.76777 7L12.8839 11.1161C13.372 11.6043 13.372 12.3957 12.8839 12.8839C12.3957 13.372 11.6043 13.372 11.1161 12.8839L7 8.76777L2.88388 12.8839C2.39573 13.372 1.60427 13.372 1.11612 12.8839C0.627961 12.3957 0.627961 11.6043 1.11612 11.1161L5.23223 7L1.11612 2.88388C0.627961 2.39573 0.627961 1.60427 1.11612 1.11612Z" fill="white"/>
</svg>
