<svg width="48" height="38" viewBox="0 0 48 38" fill="none" xmlns="http://www.w3.org/2000/svg">
<path d="M6.45742 36.5135L4.85406 37.1583V36.0299H2.39559V36.5135L0.792236 37.1583V34.8747H1.29996L1.78097 32.6985C1.86114 32.2687 2.0482 31.9463 2.2887 31.7313C2.5292 31.5164 2.84987 31.4089 3.22399 31.4089H5.92297V34.8747H6.4307V36.5135H6.45742ZM4.31961 34.9015V32.5104H3.78516C3.57138 32.5104 3.41105 32.591 3.30416 32.7791C3.22399 32.8866 3.17054 33.0478 3.14382 33.209L2.79643 34.9015H4.31961Z" fill="black"/>
<path d="M12.2563 34.6598C12.2563 35.1165 12.1227 35.4389 11.8822 35.6807C11.6417 35.9225 11.2943 36.0299 10.8935 36.0299H7.33936V32.806C7.33936 32.3493 7.47297 32.0269 7.71347 31.7851C7.95397 31.5433 8.30137 31.4358 8.70221 31.4358H12.2563V34.6598ZM10.653 34.2836V32.5105H9.58405C9.31683 32.5105 9.12977 32.5911 9.0496 32.7523C8.99615 32.8329 8.96943 32.9672 8.96943 33.1284V34.9016H10.0383C10.3056 34.9016 10.4926 34.821 10.5728 34.6598C10.6262 34.5792 10.653 34.4448 10.653 34.2836Z" fill="black"/>
<path d="M18.6429 36.3523L17.0396 35.7075V34.0687L16.0776 34.7941L15.1156 34.0687V35.7075L13.5122 36.3523V31.0597L16.0776 33.0478L18.6429 31.0866V36.3523Z" fill="black"/>
<path d="M22.2773 33.3702L21.8764 34.0418H20.0059L20.4067 33.3702H22.2773Z" fill="black"/>
<path d="M28.2631 36.0299H23.6401V32.806C23.6401 32.3493 23.7737 32.0269 24.0143 31.7851C24.2548 31.5433 24.6021 31.4358 25.003 31.4358H28.2899L27.6218 32.5642H25.8848C25.6176 32.5642 25.4305 32.6448 25.3504 32.806C25.2969 32.8866 25.2702 33.0209 25.2702 33.1821V34.8747H27.6218L28.2631 36.0299Z" fill="black"/>
<path d="M34.142 31.4358L32.7792 33.8269L33.5007 34.7135H32.2982L31.5499 36.0568H29.9466L30.8284 34.7135H30.5078L28.5837 31.4358H30.4276L31.5499 33.3702L32.6456 31.4358H34.142Z" fill="black"/>
<path d="M41.0098 36.0299H34.73V31.0865L36.3333 31.7582V34.9015H37.0548V31.1134L38.6582 31.7851V34.9284H39.3797V31.7851L40.9831 31.1403V36.0299H41.0098Z" fill="black"/>
<path d="M47.1559 36.3523L45.5525 35.7075V33.209L43.869 33.9612V35.6807L42.2656 36.3255V31.0597L43.869 31.7313V32.5911L47.1559 31.0866V36.3523Z" fill="black"/>
<path d="M23.0254 0.674072L39.9141 18.2983L39.4865 18.755L21.8496 1.85618L23.0254 0.674072Z" fill="black"/>
<path d="M26.7398 0.674072L9.771 18.352L10.1986 18.8087L27.8889 1.85618L26.7398 0.674072Z" fill="black"/>
<path d="M26.9268 25.1223C27.6483 25.1491 28.3431 25.1223 29.0112 25.1491C29.6793 25.176 30.1335 24.8267 30.5878 24.3163C31.0688 23.779 31.149 22.973 31.1757 22.2476C31.2826 20.2058 31.2559 18.1371 31.1223 16.0952C31.0688 15.2624 30.9887 14.1071 30.4275 13.4892C29.893 12.8982 29.0379 12.737 28.263 12.6295C26.232 12.334 24.1477 12.4952 22.0633 12.522C21.2349 12.522 20.0859 12.6026 19.498 13.1937C18.9101 13.7579 18.723 14.6713 18.6428 15.4773C18.4291 17.7878 18.4291 20.0714 18.3489 22.3819C18.3222 23.1879 18.242 24.1282 18.8032 24.7193C19.3109 25.2566 20.1393 25.3103 20.8875 25.3103C22.4642 25.3372 24.0141 25.3641 25.5907 25.3641" fill="white"/>
<path d="M26.9269 25.4716C28.4234 25.4984 29.9465 25.7671 30.9353 24.3969C31.7637 23.2685 31.5499 21.4148 31.5766 20.0983C31.6033 18.3789 31.6301 16.6057 31.3628 14.8863C31.1491 13.5698 30.481 12.7639 29.1716 12.4415C27.4613 12.0116 25.6442 12.0922 23.9072 12.1459C22.5978 12.1728 20.9678 11.9847 19.792 12.6027C18.4826 13.3012 18.3757 14.9669 18.2955 16.2565C18.1619 18.1102 18.1352 19.964 18.0817 21.8178C18.0283 23.2685 17.8679 25.0148 19.6049 25.4716C20.4868 25.7133 21.4488 25.6059 22.3573 25.6328C23.453 25.6596 24.5219 25.6596 25.6175 25.6865C26.0451 25.6865 26.0451 25.0148 25.6175 25.0148C24.1477 24.988 22.6513 24.9611 21.1815 24.9611C20.5669 24.9611 19.8721 24.988 19.3377 24.6656C18.6429 24.2357 18.7231 23.3223 18.7498 22.5969C18.8032 21.1461 18.83 19.7222 18.8834 18.2714C18.9368 16.9281 18.8032 15.1818 19.4446 13.946C20.0592 12.7907 21.5289 12.8982 22.6513 12.8713C24.121 12.8445 25.5908 12.7639 27.0338 12.8713C28.2363 12.9519 30.1069 12.9788 30.5612 14.3758C30.962 15.5579 30.8818 17.0087 30.9086 18.2714C30.9353 19.8297 31.0422 21.4954 30.7749 23.0536C30.6681 23.779 30.2138 24.5581 29.4923 24.7999C29.1181 24.9074 28.6639 24.8536 28.263 24.8536C27.8355 24.8536 27.3812 24.8536 26.9536 24.8536C26.4993 24.7999 26.4993 25.4716 26.9269 25.4716Z" fill="black"/>
<path d="M28.9043 16.3908C28.5837 15.3967 28.0492 14.9937 27.6751 14.8863C26.6062 14.5101 23.5064 14.6713 22.3573 14.7519C21.4755 14.8325 21.0479 15.2355 20.8608 16.9012C23.5064 15.4773 27.1139 15.9878 28.9043 16.3908Z" fill="#EF4123"/>
<path d="M21.2618 17.2236C21.2618 17.2236 21.0747 17.3042 20.8075 17.4117C20.7808 17.7878 20.754 18.2176 20.7273 18.7281C20.7006 19.5072 20.7006 20.152 20.7273 20.6625C20.8075 20.5819 20.9144 20.4744 21.0213 20.3669C23.3194 18.0833 27.408 17.7609 29.1449 17.7072C29.0915 17.1967 29.0113 16.7937 28.9044 16.4445C27.3545 16.2564 24.2547 16.0415 21.2618 17.2236Z" fill="#EF4123"/>
<path d="M23.4263 23.0267C24.896 23.0804 26.8735 23.0536 27.4881 22.9998C28.3432 22.9192 29.0915 22.3013 29.2251 19.3998C28.1562 19.7222 25.4037 20.7431 23.4263 23.0267Z" fill="#EF4123"/>
<path d="M29.1984 19.346C29.1984 19.2654 29.1984 19.1848 29.1984 19.1042C29.2251 18.6207 29.1984 18.1908 29.1716 17.8147C27.6752 17.949 24.415 18.4863 21.6626 20.5013C21.6626 20.5013 21.235 20.8505 20.7808 21.1729C20.9144 22.4088 21.2885 22.7849 21.9031 22.9192C22.1169 22.973 22.4643 22.9998 22.8918 23.0267C24.5219 20.6356 27.9959 19.6416 29.1984 19.346Z" fill="#EF4123"/>
</svg>
