<svg width="119" height="93" viewBox="0 0 119 93" fill="none" xmlns="http://www.w3.org/2000/svg">
<path d="M14.5406 91.2892L10.4254 92.9316V90.0574H4.11527V91.2892L0 92.9316V87.1148H1.30317L2.53775 81.5718C2.74352 80.4768 3.22363 79.6556 3.84092 79.1082C4.45821 78.5607 5.28127 78.287 6.2415 78.287H13.1689V87.1148H14.472V91.2892H14.5406ZM9.0536 87.1832V81.0927H7.68184C7.13314 81.0927 6.72161 81.298 6.44726 81.7771C6.2415 82.0508 6.10432 82.4614 6.03573 82.872L5.14409 87.1832H9.0536Z" fill="black"/>
<path d="M29.4243 86.5673C29.4243 87.7307 29.0813 88.5519 28.464 89.1678C27.8467 89.7837 26.9551 90.0574 25.9263 90.0574H16.8041V81.8455C16.8041 80.6821 17.147 79.8609 17.7643 79.245C18.3816 78.6291 19.2732 78.3554 20.3021 78.3554H29.4243V86.5673ZM25.309 85.6093V81.0927H22.5655C21.8796 81.0927 21.3995 81.298 21.1937 81.7086C21.0565 81.9139 20.9879 82.2561 20.9879 82.6667V87.1832H23.7315C24.4173 87.1832 24.8974 86.9779 25.1032 86.5673C25.2404 86.362 25.309 86.0199 25.309 85.6093Z" fill="black"/>
<path d="M45.8167 90.8786L41.7014 89.2362V85.0618L39.2323 86.9095L36.7631 85.0618V89.2362L32.6478 90.8786V77.3973L39.2323 82.4614L45.8167 77.4658V90.8786Z" fill="black"/>
<path d="M55.1447 83.2825L54.1159 84.9933H49.3147L50.3435 83.2825H55.1447Z" fill="black"/>
<path d="M70.5084 90.0574H58.6427V81.8455C58.6427 80.6821 58.9856 79.8609 59.6029 79.245C60.2202 78.6291 61.1119 78.3554 62.1407 78.3554H70.577L68.8623 81.2296H64.4041C63.7182 81.2296 63.2381 81.4349 63.0323 81.8455C62.8952 82.0508 62.8266 82.3929 62.8266 82.8035V87.1148H68.8623L70.5084 90.0574Z" fill="black"/>
<path d="M85.5977 78.3554L82.0997 84.4459L83.9516 86.7042H80.8651L78.9447 90.1258H74.8294L77.0928 86.7042H76.2697L71.3314 78.3554H76.064L78.9447 83.2826L81.7568 78.3554H85.5977Z" fill="black"/>
<path d="M103.225 90.0574H87.1067V77.4658L91.222 79.1766V87.1832H93.0738V77.5342L97.1891 79.245V87.2516H99.041V79.245L103.156 77.6026V90.0574H103.225Z" fill="black"/>
<path d="M119 90.8786L114.885 89.2362V82.872L110.564 84.7881V89.1678L106.448 90.8101V77.3973L110.564 79.1082V81.298L119 77.4658V90.8786Z" fill="black"/>
<path d="M57.0651 0L100.413 44.8918L99.3153 46.0552L54.0472 3.01104L57.0651 0Z" fill="black"/>
<path d="M66.5988 0L23.0455 45.0287L24.1429 46.1921L69.5481 3.01104L66.5988 0Z" fill="black"/>
<path d="M67.079 62.2737C68.9309 62.3422 70.7141 62.2737 72.4288 62.3422C74.1435 62.4106 75.3095 61.521 76.4755 60.2207C77.7101 58.8521 77.9159 56.7991 77.9845 54.9514C78.2588 49.7505 78.1902 44.4812 77.8473 39.2803C77.7101 37.1589 77.5043 34.2163 76.064 32.6424C74.6922 31.1369 72.4974 30.7263 70.5084 30.4525C65.2957 29.6998 59.9458 30.1104 54.596 30.1788C52.4698 30.1788 49.5205 30.3841 48.0116 31.8896C46.5026 33.3267 46.0225 35.6534 45.8167 37.7064C45.268 43.5916 45.268 49.4084 45.0623 55.2936C44.9937 57.3466 44.7879 59.7417 46.2283 61.2472C47.5314 62.6159 49.6577 62.7528 51.5781 62.7528C55.6248 62.8212 59.6029 62.8896 63.6496 62.8896" fill="white"/>
<path d="M67.0789 63.1634C70.9198 63.2318 74.8294 63.9161 77.3671 60.426C79.4933 57.5519 78.9446 52.83 79.0132 49.4768C79.0818 45.0971 79.1504 40.5806 78.4645 36.2009C77.9158 32.8477 76.2011 30.7947 72.8403 29.9735C68.4507 28.8786 63.7867 29.0839 59.3285 29.2207C55.9677 29.2892 51.7838 28.8102 48.766 30.3841C45.4051 32.1634 45.1308 36.4062 44.925 39.6909C44.5821 44.4128 44.5135 49.1347 44.3763 53.8565C44.2391 57.5519 43.8276 62 48.2858 63.1634C50.5492 63.7792 53.0184 63.5055 55.3504 63.5739C58.1625 63.6424 60.906 63.6424 63.7181 63.7108C64.8155 63.7108 64.8155 62 63.7181 62C59.9458 61.9316 56.1049 61.8631 52.3325 61.8631C50.755 61.8631 48.9717 61.9316 47.6 61.1104C45.8167 60.0155 46.0224 57.6887 46.091 55.8411C46.2282 52.1457 46.2968 48.5188 46.434 44.8234C46.5711 41.4018 46.2282 36.9536 47.8743 33.8057C49.4518 30.8631 53.2242 31.1369 56.1049 31.0684C59.8772 31 63.6495 30.7947 67.3533 31.0684C70.4397 31.2737 75.2409 31.3422 76.4069 34.9007C77.4357 37.9117 77.2299 41.6071 77.2985 44.8234C77.3671 48.7925 77.6415 53.0353 76.9556 57.0044C76.6812 58.8521 75.5152 60.8366 73.6634 61.4525C72.7031 61.7263 71.5371 61.5894 70.5083 61.5894C69.4109 61.5894 68.2449 61.5894 67.1475 61.5894C65.9815 61.4525 65.9815 63.1634 67.0789 63.1634Z" fill="black"/>
<path d="M72.1545 40.0331C71.3314 37.5011 69.9597 36.4746 68.9994 36.2009C66.2559 35.2428 58.2997 35.6534 55.3504 35.8587C53.087 36.064 51.9896 37.0905 51.5095 41.3333C58.2997 37.7064 67.5591 39.0066 72.1545 40.0331Z" fill="#EF4123"/>
<path d="M52.5383 42.1545C52.5383 42.1545 52.0582 42.3598 51.3723 42.6335C51.3037 43.5916 51.2351 44.6865 51.1666 45.9867C51.098 47.9713 51.098 49.6137 51.1666 50.9139C51.3723 50.7086 51.6467 50.4349 51.921 50.1611C57.8196 44.3444 68.3135 43.5232 72.7717 43.3863C72.6346 42.0861 72.4288 41.0596 72.1544 40.17C68.1764 39.6909 60.2202 39.1435 52.5383 42.1545Z" fill="#EF4123"/>
<path d="M58.0939 56.936C61.8662 57.0728 66.9417 57.0044 68.5192 56.8676C70.714 56.6623 72.6345 55.0883 72.9774 47.6976C70.2339 48.5188 63.1694 51.1192 58.0939 56.936Z" fill="#EF4123"/>
<path d="M72.9089 47.5607C72.9089 47.3554 72.9089 47.1501 72.9089 46.9448C72.9775 45.713 72.9089 44.6181 72.8403 43.66C68.9994 44.0022 60.6317 45.3709 53.5671 50.5033C53.5671 50.5033 52.4697 51.3929 51.3037 52.2141C51.6467 55.362 52.6069 56.3201 54.1844 56.6622C54.7331 56.7991 55.6247 56.8675 56.7222 56.936C60.906 50.8455 69.8224 48.3135 72.9089 47.5607Z" fill="#EF4123"/>
</svg>
