<svg width="10" height="16" viewBox="0 0 10 16" fill="none" xmlns="http://www.w3.org/2000/svg">
<path id="1" d="M0 7.31053H1.49877V0H4.86487C6.68305 0 7.99345 0.364797 8.79607 1.09439C9.59869 1.80939 10 3.04241 10 4.79343C10 6.2818 9.60688 7.42727 8.82064 8.22982C8.0344 9.01778 6.90418 9.41176 5.42998 9.41176H4.20147V11.0315H6.8059V13.1327H4.20147V16H1.49877V13.1327H0V11.0315H1.49877V9.41176H0V7.31053ZM4.20147 7.28865C4.34889 7.30324 4.52088 7.31053 4.71744 7.31053C5.66749 7.31053 6.33088 7.09895 6.70762 6.67579C7.10074 6.25262 7.2973 5.55951 7.2973 4.59644C7.2973 3.72093 7.11712 3.07889 6.75676 2.67031C6.41278 2.26174 5.8231 2.05745 4.98772 2.05745C4.74202 2.05745 4.47993 2.07934 4.20147 2.12312V7.28865Z" fill="#3E595F"/>
</svg>
